# xmcd
#
# Track frame offsets:
#	150
#	16294
#	35572
#	71756
#
# Disc length: 1389 seconds
#
# Revision: 1
# Processed by: cddbd v1.5.2PL0 Copyright (c) Steve Scherf et al.
# Submitted via: audiograbber 1.83.01
#
DISCID=2f056b04
DTITLE=Full Intention Presents Shena - CD Single
DYEAR=2001
DGENRE=
TTITLE0=I'll Be Waiting (Radio Edit)
TTITLE1=I'll Be Waiting (The Lux Sunset Edit)
TTITLE2=I'll Be Waiting (Gray and Pearn Club Mix)
TTITLE3=I'll Be Waiting (Original Mix)
EXTD=
EXTT0=
EXTT1=
EXTT2=
EXTT3=
PLAYORDER=
